<svg xmlns="http://www.w3.org/2000/svg" xmlns:xlink="http://www.w3.org/1999/xlink" width="48" height="48" x="0" y="0" version="1.1" viewBox="0 0 48 48" xml:space="preserve" style="enable-background:new 0 0 48 48"><style type="text/css">.st0{fill:none}.st1{fill:#2f6dea}.st2{fill:#5ea0ef}.st3{fill:#97cbff}.st4{opacity:.72;fill:url(#SVGID_1_)}</style><g id="base"><rect width="48" height="48" class="st0"/><g><polygon points="26.6 41.6 37.3 47.8 48 41.6 48 29.2 37.3 23 26.6 29.2" class="st1"/><polygon points="0 41.6 10.7 47.8 21.4 41.6 21.4 29.2 10.7 23 0 29.2" class="st1"/><polygon points="10.7 23 10.7 35.4 0 41.6 0 29.2" class="st2"/><polygon points="10.7 35.4 21.4 41.6 21.4 29.2 10.7 23" class="st3"/><polygon points="37.3 23 37.3 35.4 48 41.6 48 29.2" class="st2"/><polygon points="26.6 29.2 37.3 23 37.3 35.4 26.6 41.6" class="st3"/><linearGradient id="SVGID_1_" x1="13.286" x2="34.714" y1="9.525" y2="9.525" gradientUnits="userSpaceOnUse"><stop offset="0" style="stop-color:#ccc5fd"/><stop offset=".826" style="stop-color:#9387f0"/></linearGradient><polygon points="13.3 18.8 24 12.6 34.7 18.8 34.7 6.4 24 .2 13.3 6.4" class="st4"/><polygon points="13.3 18.8 24 25 34.7 18.8 34.7 6.4 24 .2 13.3 6.4" class="st3"/><polygon points="24 .2 24 12.6 13.3 18.8 13.3 6.4" class="st2"/><polygon points="24 12.6 34.7 18.8 34.7 6.4 24 .2" class="st1"/></g></g></svg>